opsz8_wght100_wdth125.ufo
<glyph name="A" format="2">
	<unicode hex="0041"/>
	<advance width="1399"/>
	<outline>
		<contour>
			<point x="-224.7432861328" y="0" type="line"/>
			<point x="-203.6033325195" y="100.9997558594" type="line"/>
			<point x="22.393737793" y="141.9997558594" type="line"/>
			<point x="267.5444335938" y="607.4078369141" type="line"/>
			<point x="863.6578979492" y="1520" type="line"/>
			<point x="1034.3735961914" y="1508" type="line"/>
			<point x="1092.7865600586" y="602" type="line"/>
			<point x="1124.1654052734" y="130.9997558594" type="line"/>
			<point x="1302.1624755859" y="100.9997558594" type="line"/>
			<point x="1299.0225219727" y="0" type="line"/>
			<point x="772.6699829102" y="0" type="line"/>
			<point x="775.8099365234" y="100.9997558594" type="line"/>
			<point x="960.8070068359" y="126.9997558594" type="line"/>
			<point x="938.2642822266" y="594" type="line"/>
			<point x="891.5639038086" y="1216.2553100586" type="line"/>
			<point x="883.8350830078" y="1333.8037719727" type="line"/>
			<point x="875.8350830078" y="1337.8037719727" type="line"/>
			<point x="793.8890991211" y="1199.5530395508" type="line"/>
			<point x="359.3449707031" y="571.1108398438" type="line"/>
			<point x="163.9522094727" y="136.9997558594" type="line"/>
			<point x="377.9492797852" y="100.9997558594" type="line"/>
			<point x="362.8093261719" y="0" type="line"/>
		</contour>
		<contour>
			<point x="271.1213989258" y="526.3692626953" type="line"/>
			<point x="327.169128418" y="642.556640625" type="line"/>
			<point x="710.049621582" y="637.1120605469" type="line"/>
			<point x="674.7158813477" y="531.9620361328" type="line"/>
		</contour>
		<contour>
			<point x="712.3421630859" y="637.1120605469" type="line"/>
			<point x="1046.4352416992" y="645.3343505859" type="line"/>
			<point x="1024.3303222656" y="529.8138427734" type="line"/>
			<point x="677.0084228516" y="531.9620361328" type="line"/>
		</contour>
	</outline>
	<anchor name="bottom" x="523" y="0"/>
	<anchor name="ogonek" x="1098" y="0"/>
	<anchor name="top" x="954" y="1500"/>
	<anchor name="tonos" x="613" y="1500"/>
</glyph>
<glyph name="C" format="2">
	<unicode hex="0043"/>
	<advance width="1303"/>
	<outline>
		<contour>
			<point x="105.6342255269" y="884" type="qcurve" smooth="yes"/>
			<point x="180.7233368551" y="1251"/>
			<point x="661.0427856445" y="1570.9560546875"/>
			<point x="941.9757575269" y="1521.5711669922" type="qcurve" smooth="yes"/>
			<point x="1077.4060668945" y="1499.1652832031"/>
			<point x="1189.7590942383" y="1423.1256103516"/>
			<point x="1245.3411254883" y="1388.3929443359" type="qcurve"/>
			<point x="1274.0503540039" y="1372.5711669922" type="line"/>
			<point x="1296.217212605" y="1358.5711669922" type="line"/>
			<point x="1232.3678473706" y="1005.1574707031" type="line"/>
			<point x="1126.9169196363" y="1005.1574707031" type="line"/>
			<point x="1132.0166510816" y="1267.7885742188" type="line"/>
			<point x="1098.685962605" y="1299.404296875"/>
			<point x="1032.7897223706" y="1383.2880859375"/>
			<point x="899.7238044019" y="1404.7904052734" type="qcurve" smooth="yes"/>
			<point x="678.9746588941" y="1443.9536132812"/>
			<point x="336.8875214254" y="1183"/>
			<point x="273.1525360738" y="864" type="qcurve" smooth="yes"/>
			<point x="204.1925751363" y="526"/>
			<point x="458.2497155586" y="134.1154174805"/>
			<point x="624.8133141915" y="95.839050293" type="qcurve" smooth="yes"/>
			<point x="847.4834802071" y="51.6287231445"/>
			<point x="1111.3894745504" y="200.0601196289"/>
			<point x="1164.4318329488" y="304.8372192383" type="qcurve"/>
			<point x="1199.9878632223" y="290.4667358398" type="line"/>
			<point x="1244.6920868551" y="213.9094848633" type="line"/>
			<point x="1172.8363739645" y="84.5803833008"/>
			<point x="882.7337243477" y="-66.3366088867"/>
			<point x="647.6027313863" y="-27.5712280273" type="qcurve" smooth="yes"/>
			<point x="390.2451989571" y="17.2559204102"/>
			<point x="25.3942352926" y="500"/>
		</contour>
	</outline>
	<anchor name="bottom" x="596" y="0"/>
	<anchor name="top" x="906" y="1500"/>
</glyph>
<glyph name="D" format="2">
	<unicode hex="0044"/>
	<advance width="1427"/>
	<outline>
		<contour>
			<point x="-75.8150024414" y="0" type="line"/>
			<point x="-50.6750488281" y="97.9997558594" type="line"/>
			<point x="135.3220214844" y="128.9997558594" type="line"/>
			<point x="263.4220581055" y="775" type="line"/>
			<point x="378.9821166992" y="1378.1602783203" type="line"/>
			<point x="172.4050292969" y="1404.1602783203" type="line"/>
			<point x="184.1849975586" y="1500" type="line"/>
			<point x="644.0424194336" y="1500" type="line" smooth="yes"/>
			<point x="1057.2223510742" y="1500"/>
			<point x="1339.7763061523" y="1119"/>
			<point x="1294.6527709961" y="765" type="qcurve" smooth="yes"/>
			<point x="1253.6801147461" y="436"/>
			<point x="752.0524291992" y="0"/>
			<point x="498.2997436523" y="0" type="qcurve" smooth="yes"/>
		</contour>
		<contour>
			<point x="306.5484008789" y="125.1873779297" type="line"/>
			<point x="319.4197387695" y="123.0982666016"/>
			<point x="585.7914428711" y="117.1873779297"/>
			<point x="622.692565918" y="117.1873779297" type="qcurve" smooth="yes"/>
			<point x="721.8300170898" y="117.1873779297"/>
			<point x="1088.9525756836" y="480.1120605469"/>
			<point x="1117.8944702148" y="754" type="qcurve" smooth="yes"/>
			<point x="1152.061340332" y="1061.0361328125"/>
			<point x="969.2826538086" y="1387.701171875"/>
			<point x="736.5950317383" y="1387.701171875" type="qcurve" smooth="yes"/>
			<point x="707.8225708008" y="1387.701171875"/>
			<point x="553.7925415039" y="1378.701171875"/>
			<point x="541.5845336914" y="1376.701171875" type="qcurve"/>
			<point x="420.9005737305" y="754" type="line"/>
		</contour>
	</outline>
	<anchor name="bottom" x="686" y="0"/>
	<anchor name="center" x="448" y="754"/>
	<anchor name="top" x="827" y="1500"/>
	<anchor name="liga" x="1431" y="0"/>
</glyph>
<glyph name="E" format="2">
	<unicode hex="0045"/>
	<advance width="1127"/>
	<outline>
		<contour>
			<point x="-87.0877075195" y="0" type="line"/>
			<point x="-64.9477539062" y="98.9997558594" type="line"/>
			<point x="125.0493164062" y="130.9997558594" type="line"/>
			<point x="262.909362793" y="806" type="line"/>
			<point x="372.1293945312" y="1374.1602783203" type="line"/>
			<point x="166.1323242188" y="1399.1602783203" type="line"/>
			<point x="180.9122924805" y="1500" type="line"/>
			<point x="1207.233581543" y="1500" type="line"/>
			<point x="1174.0755004883" y="1153.9180908203" type="line"/>
			<point x="1085.7512817383" y="1153.9180908203" type="line"/>
			<point x="1040.6775512695" y="1388.7752685547" type="line"/>
			<point x="564.0718383789" y="1388.7752685547" type="line"/>
			<point x="529.0718383789" y="1362.7752685547" type="line"/>
			<point x="421.6278686523" y="794" type="line"/>
			<point x="298.1098022461" y="149.4837646484" type="line"/>
			<point x="321.1098022461" y="112.4837646484" type="line"/>
			<point x="901.7896118164" y="112.4837646484" type="line"/>
			<point x="1036.6372680664" y="382.1856689453" type="line"/>
			<point x="1125.8981323242" y="382.1856689453" type="line"/>
			<point x="1034.3076782227" y="0" type="line"/>
		</contour>
		<contour>
			<point x="349.3158569336" y="733.9620361328" type="line"/>
			<point x="370.147277832" y="833.6674804688" type="line"/>
			<point x="821.1006469727" y="842.3343505859" type="line"/>
			<point x="886.3466186523" y="996.6921386719" type="line"/>
			<point x="978.7553100586" y="996.6921386719" type="line"/>
			<point x="890.8899536133" y="527.3023681641" type="line"/>
			<point x="802.460144043" y="527.3023681641" type="line"/>
			<point x="794.6187133789" y="728.7023925781" type="line"/>
		</contour>
	</outline>
	<anchor name="bottom" x="518" y="0"/>
	<anchor name="ogonek" x="827" y="0"/>
	<anchor name="top" x="789" y="1500"/>
	<anchor name="tonos" x="81" y="1500"/>
</glyph>
<glyph name="F" format="2">
	<unicode hex="0046"/>
	<advance width="1009"/>
	<outline>
		<contour>
			<point x="-96.481628418" y="0" type="line"/>
			<point x="-73.3416748047" y="96.9997558594" type="line"/>
			<point x="115.7153930664" y="129.9997558594" type="line"/>
			<point x="252.5154418945" y="806" type="line"/>
			<point x="359.1954956055" y="1375.1602783203" type="line"/>
			<point x="152.7384033203" y="1400.1602783203" type="line"/>
			<point x="166.518371582" y="1500" type="line"/>
			<point x="1166.6798706055" y="1500" type="line"/>
			<point x="1137.1519165039" y="1181.931640625" type="line"/>
			<point x="1044.9755249023" y="1181.931640625" type="line"/>
			<point x="1005.2720336914" y="1392.5162353516" type="line"/>
			<point x="554.0661010742" y="1389.5162353516" type="line"/>
			<point x="519.0661010742" y="1360.5162353516" type="line"/>
			<point x="411.4739379883" y="801" type="line"/>
			<point x="282.6738891602" y="126.9997558594" type="line"/>
			<point x="502.6109619141" y="92.9997558594" type="line"/>
			<point x="486.4710083008" y="0" type="line"/>
		</contour>
		<contour>
			<point x="332" y="751" type="line"/>
			<point x="351" y="851" type="line"/>
			<point x="814.494934082" y="794.0753173828" type="line"/>
			<point x="892.0525512695" y="956.4000244141" type="line"/>
			<point x="972.3345336914" y="956.4000244141" type="line"/>
			<point x="890.8984985352" y="479.0086669922" type="line"/>
			<point x="806.6165161133" y="479.0086669922" type="line"/>
			<point x="797.8648071289" y="688.9987792969" type="line"/>
		</contour>
	</outline>
	<anchor name="bottom" x="578" y="0"/>
	<anchor name="top" x="622" y="1500"/>
</glyph>
<glyph name="H" format="2">
	<unicode hex="0048"/>
	<advance width="1560"/>
	<outline>
		<contour>
			<point x="-71.1180419922" y="0" type="line"/>
			<point x="-46.9780883789" y="99.9997558594" type="line"/>
			<point x="142.0189819336" y="130.9997558594" type="line"/>
			<point x="275.8790283203" y="806" type="line"/>
			<point x="383.4390869141" y="1374.5003051758" type="line"/>
			<point x="179.1619873047" y="1400.1002807617" type="line"/>
			<point x="190.8819580078" y="1500" type="line"/>
			<point x="771.1146240234" y="1500" type="line"/>
			<point x="751.7946777344" y="1401.1002807617" type="line"/>
			<point x="545.6776123047" y="1374.5003051758" type="line"/>
			<point x="432.1175537109" y="777" type="line"/>
			<point x="310.2575073242" y="130.9997558594" type="line"/>
			<point x="525.6546020508" y="99.9997558594" type="line"/>
			<point x="510.1146240234" y="0" type="line"/>
		</contour>
		<contour>
			<point x="346" y="738" type="line"/>
			<point x="367" y="855" type="line"/>
			<point x="785.0706787109" y="839.4458007812" type="line"/>
			<point x="1207.2462158203" y="842.7421875" type="line"/>
			<point x="1179.6901855469" y="727.5915527344" type="line"/>
			<point x="755.6628417969" y="734.8879394531" type="line"/>
		</contour>
		<contour>
			<point x="791.1207275391" y="0" type="line"/>
			<point x="813.2606811523" y="99.9997558594" type="line"/>
			<point x="1031.2577514648" y="130.9997558594" type="line"/>
			<point x="1154.1177978516" y="772" type="line"/>
			<point x="1258.6778564453" y="1374.5003051758" type="line"/>
			<point x="1065.4007568359" y="1401.1002807617" type="line"/>
			<point x="1077.1207275391" y="1501" type="line"/>
			<point x="1643.3533935547" y="1501" type="line"/>
			<point x="1626.0334472656" y="1401.1002807617" type="line"/>
			<point x="1427.9163818359" y="1374.5003051758" type="line"/>
			<point x="1311.8363037109" y="755" type="line"/>
			<point x="1195.9762573242" y="130.9997558594" type="line"/>
			<point x="1400.3733520508" y="99.9997558594" type="line"/>
			<point x="1384.8333740234" y="0" type="line"/>
		</contour>
	</outline>
	<anchor name="bottom" x="607" y="0"/>
	<anchor name="center" x="820" y="1079"/>
	<anchor name="top" x="950" y="1500"/>
	<anchor name="tonos" x="81" y="1500"/>
	<anchor name="cy_descender" x="1399" y="100"/>
</glyph>
<glyph name="I" format="2">
	<unicode hex="0049"/>
	<advance width="687"/>
	<outline>
		<contour>
			<point x="-70.057434082" y="0" type="line"/>
			<point x="-51.9174804688" y="99.1197509766" type="line"/>
			<point x="149.0795898438" y="125.1197509766" type="line"/>
			<point x="291.1796264648" y="824" type="line"/>
			<point x="392.6196899414" y="1374.1602783203" type="line"/>
			<point x="182.1625976562" y="1400.1602783203" type="line"/>
			<point x="192.942565918" y="1500" type="line"/>
			<point x="793.1351928711" y="1500" type="line"/>
			<point x="774.7552490234" y="1400.1602783203" type="line"/>
			<point x="557.7581787109" y="1374.1602783203" type="line"/>
			<point x="451.1381225586" y="803" type="line"/>
			<point x="316.2780761719" y="124.1197509766" type="line"/>
			<point x="543.2751464844" y="99.1197509766" type="line"/>
			<point x="531.1351928711" y="0" type="line"/>
		</contour>
	</outline>
	<anchor name="bottom" x="220" y="0"/>
	<anchor name="ogonek" x="356" y="0"/>
	<anchor name="top" x="503" y="1500"/>
	<anchor name="tonos" x="81" y="1500"/>
	<anchor name="yu_dash" x="365" y="795"/>
	<anchor name="liga" x="712" y="0"/>
</glyph>
<glyph name="J" format="2">
	<unicode hex="004A"/>
	<advance width="607"/>
	<outline>
		<contour>
			<point x="-185" y="-225" type="qcurve"/>
			<point x="-151" y="-103" type="line"/>
			<point x="-131" y="-110"/>
			<point x="-56" y="-128"/>
			<point x="2" y="-128" type="qcurve" smooth="yes"/>
			<point x="80" y="-128"/>
			<point x="170" y="-1"/>
			<point x="192" y="112" type="qcurve" smooth="yes"/>
			<point x="274.1820068359" y="754" type="line"/>
			<point x="379.8620605469" y="1377.1602783203" type="line"/>
			<point x="167.7247924805" y="1403.1602783203" type="line"/>
			<point x="185.5047607422" y="1500" type="line"/>
			<point x="750.4573974609" y="1500" type="line"/>
			<point x="736.6774291992" y="1403.1602783203" type="line"/>
			<point x="543.8205566406" y="1377.1602783203" type="line"/>
			<point x="432.1405029297" y="754" type="line"/>
			<point x="370" y="204" type="line" smooth="yes"/>
			<point x="322" y="-38"/>
			<point x="152" y="-260"/>
			<point x="28" y="-260" type="qcurve" smooth="yes"/>
			<point x="-44" y="-260"/>
			<point x="-165" y="-237"/>
		</contour>
	</outline>
	<anchor name="bottom" x="376" y="-208"/>
	<anchor name="top" x="533" y="1500"/>
	<anchor name="_liga" x="0" y="0"/>
</glyph>
<glyph name="K" format="2">
	<unicode hex="004B"/>
	<advance width="1178"/>
	<outline>
		<contour>
			<point x="-70.5180664062" y="0" type="line"/>
			<point x="-47.9780883789" y="99.9997558594" type="line"/>
			<point x="141.0189819336" y="129.9997558594" type="line"/>
			<point x="285.4790039062" y="828" type="line"/>
			<point x="384.6990356445" y="1375.1602783203" type="line"/>
			<point x="182.701965332" y="1400.1602783203" type="line"/>
			<point x="192.4819335938" y="1500" type="line"/>
			<point x="773.3544921875" y="1500" type="line"/>
			<point x="756.5745239258" y="1400.1602783203" type="line"/>
			<point x="551.5774536133" y="1375.1602783203" type="line"/>
			<point x="441.9174804688" y="825" type="line"/>
			<point x="313.1373901367" y="129.9997558594" type="line"/>
			<point x="533.1344604492" y="94.9997558594" type="line"/>
			<point x="519.5944824219" y="0" type="line"/>
		</contour>
		<contour>
			<point x="325.2330932617" y="494.9840087891" type="line"/>
			<point x="356.621887207" y="675.7370605469" type="line"/>
			<point x="957.0980224609" y="1382.1602783203" type="line"/>
			<point x="798.1009521484" y="1403.1602783203" type="line"/>
			<point x="810.8809204102" y="1500" type="line"/>
			<point x="1346.5449829102" y="1500" type="line"/>
			<point x="1330.7650146484" y="1403.1602783203" type="line"/>
			<point x="1148.7679443359" y="1388.1602783203" type="line"/>
		</contour>
		<contour>
			<point x="569.3344726562" y="855.9151611328" type="line"/>
			<point x="715.7093505859" y="1003.5338134766" type="line"/>
			<point x="1047.2268676758" y="111.9997558594" type="line"/>
			<point x="1247.2239379883" y="89.9997558594" type="line"/>
			<point x="1236.6839599609" y="0" type="line"/>
			<point x="621.3314208984" y="0" type="line"/>
			<point x="631.8713989258" y="89.9997558594" type="line"/>
			<point x="851.8684692383" y="111.9997558594" type="line"/>
		</contour>
	</outline>
	<anchor name="bottom" x="607" y="0"/>
	<anchor name="top" x="896" y="1500"/>
	<anchor name="kai_tail" x="1201" y="100"/>
</glyph>
<glyph name="L" format="2">
	<unicode hex="004C"/>
	<advance width="1070"/>
	<outline>
		<contour>
			<point x="-82.5725708008" y="0" type="line"/>
			<point x="-56.9725952148" y="97.9997558594" type="line"/>
			<point x="131.0244750977" y="129.9997558594" type="line"/>
			<point x="266.6044921875" y="806" type="line"/>
			<point x="376.7045288086" y="1379.2202758789" type="line"/>
			<point x="163.7074584961" y="1400.2202758789" type="line"/>
			<point x="174.4274291992" y="1500" type="line"/>
			<point x="802.6200561523" y="1500" type="line"/>
			<point x="785.9000854492" y="1400.2202758789" type="line"/>
			<point x="543.9030151367" y="1381.2202758789" type="line"/>
			<point x="422.8029785156" y="774" type="line"/>
			<point x="299.5649414062" y="135.4837646484" type="line"/>
			<point x="318.5649414062" y="108.4837646484" type="line"/>
			<point x="898.0880126953" y="108.4837646484" type="line"/>
			<point x="1042.1575927734" y="411.404296875" type="line"/>
			<point x="1143.2420654297" y="411.404296875" type="line"/>
			<point x="1016.4572753906" y="0" type="line"/>
		</contour>
	</outline>
	<anchor name="bottom" x="535" y="0"/>
	<anchor name="centerright" x="755" y="750"/>
	<anchor name="top" x="878" y="1500"/>
	<anchor name="topright" x="804" y="1001"/>
	<anchor name="center" x="397" y="750"/>
	<anchor name="liga" x="1104" y="0"/>
</glyph>
<glyph name="M" format="2">
	<unicode hex="004D"/>
	<advance width="1843"/>
	<outline>
		<contour>
			<point x="-96.481628418" y="0" type="line"/>
			<point x="-73.9416503906" y="97.9997558594" type="line"/>
			<point x="119.0554199219" y="132.9997558594" type="line"/>
			<point x="235.1119384766" y="729" type="line"/>
			<point x="357.7354736328" y="1373.1602783203" type="line"/>
			<point x="153.7384033203" y="1399.1602783203" type="line"/>
			<point x="164.518371582" y="1500" type="line"/>
			<point x="626.2979125977" y="1500" type="line"/>
			<point x="706.5481567383" y="747.8815307617" type="line"/>
			<point x="815" y="327" type="line"/>
			<point x="831" y="213" type="line"/>
			<point x="841" y="213" type="line"/>
			<point x="900" y="327" type="line"/>
			<point x="1133.6080932617" y="835.4290771484" type="line"/>
			<point x="1486.2801513672" y="1500" type="line"/>
			<point x="1914.3290405273" y="1500" type="line"/>
			<point x="1894.0690917969" y="1397.1602783203" type="line"/>
			<point x="1699.0720214844" y="1375.1602783203" type="line"/>
			<point x="1582.051940918" y="750" type="line"/>
			<point x="1464.1519775391" y="132.9997558594" type="line"/>
			<point x="1670.1490478516" y="100.9997558594" type="line"/>
			<point x="1656.6090698242" y="0" type="line"/>
			<point x="1055.4164428711" y="0" type="line"/>
			<point x="1078.9564208984" y="98.9997558594" type="line"/>
			<point x="1299.9534912109" y="130.9997558594" type="line"/>
			<point x="1423.573425293" y="767" type="line"/>
			<point x="1580" y="1244" type="line"/>
			<point x="1606" y="1363" type="line"/>
			<point x="1597" y="1365" type="line"/>
			<point x="1539" y="1258" type="line"/>
			<point x="1205.5999145508" y="753.3035888672" type="line"/>
			<point x="788.5430297852" y="-7" type="line"/>
			<point x="629.9127807617" y="-7" type="line"/>
			<point x="545.2276611328" y="754.278503418" type="line"/>
			<point x="499" y="1249" type="line"/>
			<point x="485" y="1357" type="line"/>
			<point x="474" y="1355" type="line"/>
			<point x="456" y="1235" type="line"/>
			<point x="350.221496582" y="713" type="line"/>
			<point x="239.435546875" y="132.9997558594" type="line"/>
			<point x="464.4326171875" y="97.9997558594" type="line"/>
			<point x="448.2926635742" y="0" type="line"/>
		</contour>
	</outline>
	<anchor name="bottom" x="768" y="0"/>
	<anchor name="top" x="1048" y="1500"/>
</glyph>
<glyph name="N" format="2">
	<unicode hex="004E"/>
	<advance width="1461"/>
	<outline>
		<contour>
			<point x="-98.481628418" y="0" type="line"/>
			<point x="-72.9416503906" y="99.9997558594" type="line"/>
			<point x="117.0554199219" y="130.9997558594" type="line"/>
			<point x="234.5154418945" y="734" type="line"/>
			<point x="359.7354736328" y="1378.1602783203" type="line"/>
			<point x="149.7384033203" y="1397.1602783203" type="line"/>
			<point x="165.518371582" y="1500" type="line"/>
			<point x="620.4939575195" y="1500" type="line"/>
			<point x="858.2015380859" y="800.4950561523" type="line"/>
			<point x="991.4024047852" y="385.3912353516" type="line"/>
			<point x="1032.4233398438" y="265.6344604492" type="line"/>
			<point x="1038.4233398438" y="265.6344604492" type="line"/>
			<point x="1064.8292236328" y="410.6344604492" type="line"/>
			<point x="1146.9816894531" y="808" type="line"/>
			<point x="1261.0817260742" y="1370.1002807617" type="line"/>
			<point x="1033.0846557617" y="1400.1002807617" type="line"/>
			<point x="1049.9846191406" y="1500" type="line"/>
			<point x="1586.240234375" y="1500" type="line"/>
			<point x="1571.3402709961" y="1399.1002807617" type="line"/>
			<point x="1380.3432006836" y="1373.1002807617" type="line"/>
			<point x="1257.2431640625" y="778" type="line"/>
			<point x="1090.2431640625" y="-4" type="line"/>
			<point x="927.5317382812" y="-4" type="line"/>
			<point x="695.0133666992" y="746.2360229492" type="line"/>
			<point x="530.2047729492" y="1196.3208618164" type="line"/>
			<point x="471.0034790039" y="1339.2486572266" type="line"/>
			<point x="465.0034790039" y="1339.2486572266" type="line"/>
			<point x="440.3339233398" y="1186.2486572266" type="line"/>
			<point x="348.7028198242" y="711" type="line"/>
			<point x="235.2427978516" y="124.9997558594" type="line"/>
			<point x="477.2398681641" y="106.9997558594" type="line"/>
			<point x="450.6998901367" y="0" type="line"/>
		</contour>
	</outline>
	<anchor name="bottom" x="640" y="0"/>
	<anchor name="top" x="884" y="1500"/>
	<anchor name="engtail" x="1041" y="0"/>
	<anchor name="liga" x="1432" y="0"/>
</glyph>
<glyph name="O" format="2">
	<unicode hex="004F"/>
	<advance width="1520"/>
	<outline>
		<contour>
			<point x="106" y="883" type="qcurve" smooth="yes"/>
			<point x="179" y="1241"/>
			<point x="683.5181274414" y="1559.7250366211"/>
			<point x="973.869934082" y="1510.6051635742" type="qcurve" smooth="yes"/>
			<point x="1226.6091918945" y="1463.8143920898"/>
			<point x="1481.8344726562" y="938.2399902344"/>
			<point x="1392.3493652344" y="592" type="qcurve" smooth="yes"/>
			<point x="1301.0424804688" y="246"/>
			<point x="846.5431518555" y="-91.5788574219"/>
			<point x="515.0880737305" y="-30.748046875" type="qcurve" smooth="yes"/>
			<point x="252.8031616211" y="23.2609863281"/>
			<point x="31" y="517"/>
		</contour>
		<contour>
			<point x="277.23828125" y="867" type="qcurve" smooth="yes"/>
			<point x="216.3454589844" y="558.1412353516"/>
			<point x="303.6001586914" y="139.9212646484"/>
			<point x="527.7922973633" y="90.9212646484" type="qcurve" smooth="yes"/>
			<point x="787.9197387695" y="34.9212646484"/>
			<point x="1153.9711303711" y="315.2611083984"/>
			<point x="1226.1511230469" y="625" type="qcurve" smooth="yes"/>
			<point x="1297.623840332" y="935.7060546875"/>
			<point x="1105.6674194336" y="1351.8617553711"/>
			<point x="895.4430541992" y="1391.8617553711" type="qcurve" smooth="yes"/>
			<point x="674.444519043" y="1432.8617553711"/>
			<point x="336.7025146484" y="1174.9934082031"/>
		</contour>
	</outline>
	<anchor name="bottom" x="612" y="0"/>
	<anchor name="center" x="765" y="756"/>
	<anchor name="ogonek" x="844" y="0"/>
	<anchor name="top" x="906" y="1500"/>
	<anchor name="topright" x="1044" y="1500"/>
	<anchor name="tonos" x="230" y="1500"/>
	<anchor name="_yu_dash" x="174" y="795"/>
</glyph>
<glyph name="P" format="2">
	<unicode hex="0050"/>
	<advance width="1166"/>
	<outline>
		<contour>
			<point x="-101.419128418" y="0" type="line"/>
			<point x="-82.8791503906" y="98.9997558594" type="line"/>
			<point x="113.1179199219" y="125.9997558594" type="line"/>
			<point x="256" y="754" type="line"/>
			<point x="358.7979736328" y="1375.1602783203" type="line"/>
			<point x="144.8009033203" y="1403.1602783203" type="line"/>
			<point x="154.580871582" y="1500" type="line"/>
			<point x="767.846496582" y="1500" type="line" smooth="yes"/>
			<point x="1030.0306396484" y="1500"/>
			<point x="1235.7279663086" y="1235"/>
			<point x="1194.7749023438" y="1012" type="qcurve" smooth="yes"/>
			<point x="1151.8218383789" y="776"/>
			<point x="813.6461791992" y="565.9608154297"/>
			<point x="637.1858520508" y="565.9608154297" type="qcurve" smooth="yes"/>
			<point x="514.1311035156" y="565.9608154297"/>
			<point x="344.3949584961" y="595.9548339844"/>
			<point x="317" y="628" type="qcurve"/>
			<point x="337" y="733" type="line"/>
			<point x="352.7658691406" y="714.4399414062"/>
			<point x="510.7503662109" y="685"/>
			<point x="594.1362304688" y="685" type="qcurve" smooth="yes"/>
			<point x="746.7789306641" y="685"/>
			<point x="995.9765625" y="830"/>
			<point x="1027.9765625" y="1031" type="qcurve" smooth="yes"/>
			<point x="1055.9765625" y="1202"/>
			<point x="907.3501586914" y="1387.9234619141"/>
			<point x="719.7322387695" y="1387.9234619141" type="qcurve" smooth="yes"/>
			<point x="546.9804077148" y="1387.9234619141" type="line"/>
			<point x="520.9063110352" y="1365.9234619141" type="line"/>
			<point x="419" y="764" type="line"/>
			<point x="278.0764160156" y="127.9997558594" type="line"/>
			<point x="500.0734863281" y="98.9997558594" type="line"/>
			<point x="482.5335083008" y="0" type="line"/>
		</contour>
	</outline>
	<anchor name="bottom" x="634" y="0"/>
	<anchor name="top" x="634" y="1500"/>
</glyph>
<glyph name="Q" format="2">
	<unicode hex="0051"/>
	<advance width="1452"/>
	<outline>
		<contour>
			<point x="95" y="883" type="qcurve" smooth="yes"/>
			<point x="174" y="1265"/>
			<point x="674.1079711914" y="1569.8339233398"/>
			<point x="964.459777832" y="1520.714050293" type="qcurve" smooth="yes"/>
			<point x="1217.1990356445" y="1473.9232788086"/>
			<point x="1481.9853515625" y="964"/>
			<point x="1387.3493652344" y="620" type="qcurve" smooth="yes"/>
			<point x="1290.8024902344" y="270"/>
			<point x="808.3896484375" y="-74.4730834961"/>
			<point x="504.8500976562" y="-16.5712280273" type="qcurve" smooth="yes"/>
			<point x="262.8500976562" y="35.7088012695"/>
			<point x="22" y="530"/>
		</contour>
		<contour>
			<point x="266.23828125" y="867" type="qcurve" smooth="yes"/>
			<point x="207.2054443359" y="576.1412353516"/>
			<point x="292.5294189453" y="150.2089233398"/>
			<point x="517.4635009766" y="100.2089233398" type="qcurve" smooth="yes"/>
			<point x="776.5909423828" y="43.2089233398"/>
			<point x="1140.9602661133" y="346.2865600586"/>
			<point x="1213.1511230469" y="626" type="qcurve" smooth="yes"/>
			<point x="1291.6347045898" y="937.6551513672"/>
			<point x="1093.2572631836" y="1358.9706420898"/>
			<point x="886.0328979492" y="1401.9706420898" type="qcurve" smooth="yes"/>
			<point x="687.034362793" y="1443.9706420898"/>
			<point x="328.8425292969" y="1179.9934082031"/>
		</contour>
		<contour>
			<point x="382" y="-3" type="qcurve"/>
			<point x="693.0126953125" y="-338.75" type="line" smooth="yes"/>
			<point x="782.1746826172" y="-379.8255615234"/>
			<point x="968.2864990234" y="-295.6564941406"/>
			<point x="1057.7855224609" y="-139.5737304688" type="qcurve"/>
			<point x="1156.75" y="-196.8713378906" type="line"/>
			<point x="1065.75" y="-371.8713378906"/>
			<point x="827.9328613281" y="-516.2687988281"/>
			<point x="673.6530761719" y="-492.388671875" type="qcurve"/>
			<point x="490.8791503906" y="-256.9465332031" type="line"/>
			<point x="384.2208251953" y="-242.9575195312"/>
			<point x="272.2147216797" y="-322.7258300781"/>
			<point x="201.9539794922" y="-400.8903808594" type="qcurve"/>
			<point x="120.6196289062" y="-332" type="line"/>
			<point x="178.8195800781" y="-240.7600097656"/>
			<point x="296" y="5"/>
		</contour>
		<contour>
			<point x="320" y="-53" type="line"/>
			<point x="426" y="75"/>
			<point x="594.6745605469" y="164.1488037109"/>
			<point x="615.3414306641" y="186.5192871094" type="qcurve" smooth="yes"/>
			<point x="623.7486572266" y="194.7783203125"/>
			<point x="654" y="332"/>
			<point x="643.7486572266" y="212.5560302734" type="qcurve"/>
			<point x="666.6010742188" y="204.8150634766"/>
			<point x="746.6390380859" y="167.4439697266"/>
			<point x="758.5281982422" y="157.4807128906" type="qcurve"/>
			<point x="748.4541015625" y="148.1843261719"/>
			<point x="734.6022949219" y="138.3325195312"/>
			<point x="722.046875" y="128.9252929688" type="qcurve" smooth="yes"/>
			<point x="703.4541015625" y="115.2957763672"/>
			<point x="506" y="28"/>
			<point x="401" y="-88" type="qcurve"/>
		</contour>
	</outline>
	<anchor name="bottom" x="832" y="0"/>
	<anchor name="top" x="832" y="1500"/>
</glyph>
<glyph name="R" format="2">
	<unicode hex="0052"/>
	<advance width="1226"/>
	<outline>
		<contour>
			<point x="-97.481628418" y="0" type="line"/>
			<point x="-66.3416748047" y="99.9997558594" type="line"/>
			<point x="119.6553955078" y="126.9997558594" type="line"/>
			<point x="248.1953735352" y="784" type="line"/>
			<point x="360.235534668" y="1373.1602783203" type="line"/>
			<point x="143.7784423828" y="1400.1602783203" type="line"/>
			<point x="155.5584106445" y="1500" type="line"/>
			<point x="811.0003051758" y="1500" type="line" smooth="yes"/>
			<point x="1029.7454833984" y="1500"/>
			<point x="1235.1592407227" y="1296"/>
			<point x="1209.2351074219" y="1100" type="qcurve" smooth="yes"/>
			<point x="1186.3178710938" y="917"/>
			<point x="859.3487548828" y="657.2951660156"/>
			<point x="651.6204833984" y="657.2951660156" type="qcurve" smooth="yes"/>
			<point x="588.2552490234" y="657.2951660156"/>
			<point x="343.3556518555" y="656.2951660156"/>
			<point x="312.4536743164" y="662.2551269531" type="qcurve"/>
			<point x="339.5474243164" y="774.1120605469" type="line"/>
			<point x="491.1067504883" y="774.1120605469" type="line"/>
			<point x="682.1109008789" y="774.1120605469" type="line" smooth="yes"/>
			<point x="851.4833374023" y="774.1120605469"/>
			<point x="1030.4837036133" y="951"/>
			<point x="1041.4768066406" y="1100" type="qcurve" smooth="yes"/>
			<point x="1052.469909668" y="1238"/>
			<point x="961.1443481445" y="1388.7752685547"/>
			<point x="814.0448608398" y="1388.7752685547" type="qcurve" smooth="yes"/>
			<point x="556.637878418" y="1388.7752685547" type="line"/>
			<point x="523.5637817383" y="1366.7752685547" type="line"/>
			<point x="404.1939086914" y="754" type="line"/>
			<point x="286.3338623047" y="129.9997558594" type="line"/>
			<point x="505.3309326172" y="102.9997558594" type="line"/>
			<point x="493.1909790039" y="0" type="line"/>
		</contour>
		<contour>
			<point x="616" y="792" type="line"/>
			<point x="878.4898681641" y="759.9241333008" type="line"/>
			<point x="871.6002197266" y="718" type="line" smooth="yes"/>
			<point x="907.016784668" y="469.9619750977"/>
			<point x="1048.0763549805" y="110.5087280273"/>
			<point x="1215.5694580078" y="91.9397583008" type="qcurve"/>
			<point x="1199.801940918" y="0" type="line"/>
			<point x="1087.8847045898" y="0" type="line" smooth="yes"/>
			<point x="918.7791748047" y="0"/>
			<point x="656" y="447"/>
			<point x="713.7740478516" y="691" type="qcurve" smooth="yes"/>
		</contour>
	</outline>
	<anchor name="bottom" x="573" y="0"/>
	<anchor name="top" x="670" y="1500"/>
</glyph>
<glyph name="S" format="2">
	<unicode hex="0053"/>
	<advance width="950"/>
	<outline>
		<contour>
			<point x="-41.1358032227" y="11.8670654297" type="line"/>
			<point x="31.5610961914" y="458.3229980469" type="line"/>
			<point x="132.2232055664" y="456.3229980469" type="line"/>
			<point x="137.3346557617" y="326.2614746094" type="line" smooth="yes"/>
			<point x="141.8533325195" y="193.2614746094"/>
			<point x="322.0396118164" y="78.8916015625"/>
			<point x="483.8890380859" y="78.8916015625" type="qcurve" smooth="yes"/>
			<point x="623.5150146484" y="78.8916015625"/>
			<point x="852.1246337891" y="246.3717041016"/>
			<point x="856.1246337891" y="384.7789306641" type="qcurve" smooth="yes"/>
			<point x="859.1246337891" y="503.2235107422"/>
			<point x="718.4240112305" y="615.6531982422"/>
			<point x="557.0109863281" y="713.1423339844" type="qcurve" smooth="yes"/>
			<point x="370.8439941406" y="813.9671630859"/>
			<point x="154.5911865234" y="990.1848144531"/>
			<point x="159.5911865234" y="1161" type="qcurve" smooth="yes"/>
			<point x="164.5911865234" y="1325"/>
			<point x="411.5263061523" y="1517"/>
			<point x="595.1608276367" y="1517" type="qcurve" smooth="yes"/>
			<point x="688.5290527344" y="1517"/>
			<point x="884.5079956055" y="1426.9068603516"/>
			<point x="911.8778076172" y="1394.4819335938" type="qcurve"/>
			<point x="973.9125976562" y="1495.7528076172" type="line"/>
			<point x="1050.15234375" y="1486.9006347656" type="line"/>
			<point x="978.4132080078" y="1069.4310302734" type="line"/>
			<point x="879.8778076172" y="1069.4310302734" type="line"/>
			<point x="878.6922607422" y="1245.2939453125" type="line"/>
			<point x="845.6922607422" y="1294.2939453125"/>
			<point x="707.6041870117" y="1401.4788818359"/>
			<point x="614.0786743164" y="1401.4788818359" type="qcurve" smooth="yes"/>
			<point x="504.9703369141" y="1401.4788818359"/>
			<point x="314.2921142578" y="1270.7764892578"/>
			<point x="309.2921142578" y="1168.0960693359" type="qcurve" smooth="yes"/>
			<point x="304.2921142578" y="1045.7081298828"/>
			<point x="547.8674926758" y="914.5385742188"/>
			<point x="775.8394775391" y="790.753112793" type="qcurve" smooth="yes"/>
			<point x="829.2603149414" y="728.5003051758"/>
			<point x="1007.6871337891" y="552.5993652344"/>
			<point x="1002.6871337891" y="375.9196777344" type="qcurve" smooth="yes"/>
			<point x="997.9271240234" y="194.6398925781"/>
			<point x="726.5883178711" y="-37"/>
			<point x="485.485168457" y="-37" type="qcurve" smooth="yes"/>
			<point x="370.0161743164" y="-37"/>
			<point x="158.4645996094" y="42"/>
			<point x="104.2232055664" y="114" type="qcurve"/>
			<point x="39.9772338867" y="-10.0062255859" type="line"/>
		</contour>
	</outline>
	<anchor name="bottom" x="399" y="0"/>
	<anchor name="top" x="679" y="1500"/>
</glyph>
<glyph name="T" format="2">
	<unicode hex="0054"/>
	<advance width="1076"/>
	<outline>
		<contour>
			<point x="31.7371826172" y="1104.798828125" type="line"/>
			<point x="109.5391845703" y="1500" type="line"/>
			<point x="1261.7361450195" y="1500" type="line"/>
			<point x="1193.9341430664" y="1104.798828125" type="line"/>
			<point x="1093.9341430664" y="1104.798828125" type="line"/>
			<point x="1121.1830444336" y="1388.7752685547" type="line"/>
			<point x="763.6843261719" y="1388.7752685547" type="line"/>
			<point x="741.6843261719" y="1368.7752685547" type="line"/>
			<point x="626.9603271484" y="754" type="line"/>
			<point x="500.1602783203" y="121.9997558594" type="line"/>
			<point x="726.4373779297" y="99.9997558594" type="line"/>
			<point x="710.9573974609" y="0" type="line"/>
			<point x="90.0447998047" y="0" type="line"/>
			<point x="101.5247802734" y="99.9997558594" type="line"/>
			<point x="335.2418212891" y="121.9997558594" type="line"/>
			<point x="460.7618408203" y="754" type="line"/>
			<point x="571.4858398438" y="1368.7752685547" type="line"/>
			<point x="567.4858398438" y="1388.7752685547" type="line"/>
			<point x="206.9802246094" y="1388.7752685547" type="line"/>
			<point x="130.7371826172" y="1104.798828125" type="line"/>
		</contour>
	</outline>
	<anchor name="bottom" x="451" y="0"/>
	<anchor name="center" x="584" y="750"/>
	<anchor name="top" x="732" y="1500"/>
	<anchor name="cy_descender" x="755" y="100"/>
</glyph>
<glyph name="V" format="2">
	<unicode hex="0056"/>
	<advance width="1134"/>
	<outline>
		<contour>
			<point x="-23.3674926758" y="1401.1602783203" type="line"/>
			<point x="-13.1075439453" y="1500" type="line"/>
			<point x="608.9979248047" y="1500" type="line"/>
			<point x="598.7379760742" y="1401.1602783203" type="line"/>
			<point x="370.2844238281" y="1372.1602783203" type="line"/>
			<point x="414.4750976562" y="786.3200683594" type="line"/>
			<point x="438" y="390" type="line"/>
			<point x="442" y="261" type="line"/>
			<point x="460" y="261" type="line"/>
			<point x="527" y="390" type="line"/>
			<point x="793.8953857422" y="831.3193969727" type="line"/>
			<point x="1066.1625976562" y="1364.1602783203" type="line"/>
			<point x="866.7084350586" y="1400.1602783203" type="line"/>
			<point x="889.4884033203" y="1500" type="line"/>
			<point x="1412.0047607422" y="1500" type="line"/>
			<point x="1397.2988891602" y="1400.1602783203" type="line"/>
			<point x="1195.3653564453" y="1370.1602783203" type="line"/>
			<point x="874.66796875" y="761.4826049805" type="line"/>
			<point x="462.7322387695" y="-9.2856445312" type="line"/>
			<point x="328.2443237305" y="-9.2856445312" type="line"/>
			<point x="259.8022460938" y="744.6499633789" type="line"/>
			<point x="217.1657714844" y="1370.1602783203" type="line"/>
		</contour>
	</outline>
	<anchor name="bottom" x="373" y="0"/>
	<anchor name="top" x="743" y="1500"/>
</glyph>
<glyph name="W" format="2">
	<unicode hex="0057"/>
	<advance width="1419"/>
	<outline>
		<contour>
			<point x="0.0487060547" y="1401.1602783203" type="line"/>
			<point x="1.4886474609" y="1500" type="line"/>
			<point x="648.6696777344" y="1500" type="line"/>
			<point x="639.2297363281" y="1401.1602783203" type="line"/>
			<point x="385.2326660156" y="1372.1602783203" type="line"/>
			<point x="363.8572998047" y="797.3205566406" type="line"/>
			<point x="410" y="400" type="line"/>
			<point x="410" y="271" type="line"/>
			<point x="427" y="271" type="line"/>
			<point x="497" y="400" type="line"/>
			<point x="549.8383178711" y="714.8349609375" type="line"/>
			<point x="913" y="1121" type="line"/>
			<point x="786.8121337891" y="1371.6402587891" type="line"/>
			<point x="551.8150634766" y="1401.6402587891" type="line"/>
			<point x="559.075012207" y="1500" type="line"/>
			<point x="1189.4861450195" y="1500" type="line"/>
			<point x="1183.2261962891" y="1402.1602783203" type="line"/>
			<point x="928.2291259766" y="1372.1602783203" type="line"/>
			<point x="912.2802124023" y="746.0822753906" type="line"/>
			<point x="1094" y="400" type="line"/>
			<point x="1094" y="271" type="line"/>
			<point x="1111" y="271" type="line"/>
			<point x="1177" y="400" type="line"/>
			<point x="1127.1766357422" y="804.1752929688" type="line"/>
			<point x="1337.25390625" y="1362.1602783203" type="line"/>
			<point x="1114.2568359375" y="1402.1602783203" type="line"/>
			<point x="1122.0368041992" y="1500" type="line"/>
			<point x="1721.9669799805" y="1500" type="line"/>
			<point x="1972" y="1385" type="line"/>
			<point x="1463.1899414062" y="1367.1002807617" type="line"/>
			<point x="1220.2106933594" y="752.2594604492" type="line"/>
			<point x="889.5510253906" y="-7.2856445312" type="line"/>
			<point x="741.0663452148" y="-7.2856445312" type="line"/>
			<point x="923" y="805" type="line"/>
			<point x="921" y="934" type="line"/>
			<point x="911" y="934" type="line"/>
			<point x="844" y="805" type="line"/>
			<point x="356.4039916992" y="-7.2856445312" type="line"/>
			<point x="182.4710083008" y="-7.2856445312" type="line"/>
			<point x="216.5386962891" y="748.6811523438" type="line"/>
			<point x="229.0457763672" y="1371.1602783203" type="line"/>
		</contour>
	</outline>
	<anchor name="bottom" x="691" y="0"/>
	<anchor name="top" x="981" y="1500"/>
</glyph>
<glyph name="X" format="2">
	<unicode hex="0058"/>
	<advance width="1303"/>
	<outline>
		<contour>
			<point x="-67.0374755859" y="0" type="line"/>
			<point x="-43.4974975586" y="97.9997558594" type="line"/>
			<point x="172.4995727539" y="122.9997558594" type="line"/>
			<point x="641.0004272461" y="744.8876342773" type="line"/>
			<point x="376.2637329102" y="1381.1602783203" type="line"/>
			<point x="167.2666625977" y="1410.1602783203" type="line"/>
			<point x="171.0466308594" y="1500" type="line"/>
			<point x="912.0390625" y="1500" type="line"/>
			<point x="908.2590942383" y="1409.1602783203" type="line"/>
			<point x="556.2620239258" y="1384.1602783203" type="line"/>
			<point x="732.1184692383" y="1011.2415161133" type="line"/>
			<point x="770.6621704102" y="919.1049194336" type="line"/>
			<point x="776.6621704102" y="919.1049194336" type="line"/>
			<point x="852.2956542969" y="1022.7146606445" type="line"/>
			<point x="1114.9046630859" y="1373.1602783203" type="line"/>
			<point x="914.9075927734" y="1409.1602783203" type="line"/>
			<point x="942.6875610352" y="1500" type="line"/>
			<point x="1449.5452270508" y="1500" type="line"/>
			<point x="1427.7652587891" y="1409.1602783203" type="line"/>
			<point x="1236.7681884766" y="1382.1602783203" type="line"/>
			<point x="803.3791503906" y="806.9688110352" type="line"/>
			<point x="1088.9369506836" y="117.9997558594" type="line"/>
			<point x="1314.9340209961" y="92.9997558594" type="line"/>
			<point x="1299.3940429688" y="0" type="line"/>
			<point x="672.1616210938" y="0" type="line"/>
			<point x="666.7015991211" y="92.9997558594" type="line"/>
			<point x="898.6986694336" y="117.9997558594" type="line"/>
			<point x="710.7561645508" y="536.3103027344" type="line"/>
			<point x="670.5724487305" y="634.6411132812" type="line"/>
			<point x="664.5724487305" y="634.6411132812" type="line"/>
			<point x="577.9564208984" y="528.6540527344" type="line"/>
			<point x="270.2189941406" y="127.9997558594" type="line"/>
			<point x="480.2160644531" y="97.9997558594" type="line"/>
			<point x="456.6760864258" y="0" type="line"/>
		</contour>
	</outline>
	<anchor name="bottom" x="453" y="0"/>
	<anchor name="top" x="723" y="1500"/>
	<anchor name="cy_descender" x="1125" y="100"/>
	<anchor name="center" x="591" y="791"/>
</glyph>
<glyph name="Y" format="2">
	<unicode hex="0059"/>
	<advance width="1054"/>
	<outline>
		<contour>
			<point x="24.9947509766" y="0" type="line"/>
			<point x="39.5347290039" y="99.9997558594" type="line"/>
			<point x="272.5317993164" y="125.9997558594" type="line"/>
			<point x="370.3990478516" y="590.0361328125" type="line"/>
			<point x="248.5764160156" y="937.4213256836" type="line"/>
			<point x="111.7772827148" y="1372.1602783203" type="line"/>
			<point x="-66.2197875977" y="1406.1602783203" type="line"/>
			<point x="-59.4398193359" y="1500" type="line"/>
			<point x="445.2846069336" y="1500" type="line"/>
			<point x="438.5046386719" y="1406.1602783203" type="line"/>
			<point x="248.5075683594" y="1382.1602783203" type="line"/>
			<point x="407.9839477539" y="983.9420776367" type="line"/>
			<point x="609" y="783" type="line"/>
			<point x="619" y="783" type="line"/>
			<point x="824" y="1077" type="line"/>
			<point x="957.5847167969" y="1369.1602783203" type="line"/>
			<point x="792.5876464844" y="1401.1602783203" type="line"/>
			<point x="809.3676147461" y="1500" type="line"/>
			<point x="1268.5771484375" y="1500" type="line"/>
			<point x="1250.7971801758" y="1401.1602783203" type="line"/>
			<point x="1059.8001098633" y="1367.1602783203" type="line"/>
			<point x="903" y="1013" type="line"/>
			<point x="534.5193481445" y="606.0438232422" type="line"/>
			<point x="441.0103149414" y="123.9997558594" type="line"/>
			<point x="667.0073852539" y="99.9997558594" type="line"/>
			<point x="655.4674072266" y="0" type="line"/>
		</contour>
	</outline>
	<anchor name="bottom" x="443" y="0"/>
	<anchor name="top" x="731" y="1500"/>
	<anchor name="tonos" x="-13" y="1500"/>
	<anchor name="center" x="553" y="579"/>
</glyph>
<glyph name="Z" format="2">
	<unicode hex="005A"/>
	<advance width="708"/>
	<outline>
		<contour>
			<point x="-216.6940917969" y="0" type="line"/>
			<point x="-237.2868652344" y="77.7795410156" type="line"/>
			<point x="327.4583129883" y="823.9353027344" type="line"/>
			<point x="699.8344116211" y="1373.7752685547" type="line"/>
			<point x="689.8344116211" y="1389.7752685547" type="line"/>
			<point x="218.3787231445" y="1389.7752685547" type="line"/>
			<point x="66.5142211914" y="1127.0657958984" type="line"/>
			<point x="-21.4857788086" y="1127.0657958984" type="line"/>
			<point x="60.6757202148" y="1500" type="line"/>
			<point x="914.5373535156" y="1500" type="line"/>
			<point x="906.0186767578" y="1423.3686523438" type="line"/>
			<point x="433.4299926758" y="746.3345336914" type="line"/>
			<point x="-41.8844604492" y="116.4837646484" type="line"/>
			<point x="-31.8844604492" y="110.4837646484" type="line"/>
			<point x="468.2401123047" y="110.4837646484" type="line"/>
			<point x="627.14453125" y="401.8782958984" type="line"/>
			<point x="716.14453125" y="401.8782958984" type="line"/>
			<point x="606.7581787109" y="0" type="line"/>
		</contour>
	</outline>
	<anchor name="bottom" x="383" y="0"/>
	<anchor name="top" x="643" y="1500"/>
	<anchor name="_liga" x="0" y="0"/>
</glyph>
<glyph name="a" format="2">
	<unicode hex="0061"/>
	<advance width="1050"/>
	<outline>
		<contour>
			<point x="-2.9973144531" y="335" type="qcurve" smooth="yes"/>
			<point x="-2.9973144531" y="605"/>
			<point x="362.9973814429" y="1020.25"/>
			<point x="558.2959043921" y="1020.25" type="qcurve" smooth="yes"/>
			<point x="636.7910215796" y="1020.25"/>
			<point x="761.3607788086" y="946.25"/>
			<point x="777.5702514648" y="916.25" type="qcurve"/>
			<point x="855.5806884766" y="1016.25" type="line"/>
			<point x="883.5043334961" y="1016.25" type="line"/>
			<point x="904.3193418921" y="896.25" type="line"/>
			<point x="771.6765196265" y="389" type="line"/>
			<point x="733.7149107398" y="209" type="line"/>
			<point x="750.3878233374" y="153"/>
			<point x="787.4304258765" y="74"/>
			<point x="805.7014219702" y="40" type="qcurve"/>
			<point x="673.8860253408" y="-23" type="line"/>
			<point x="650.1242455556" y="29.8095703125"/>
			<point x="598.7323388173" y="136.7619628906"/>
			<point x="595.2262963369" y="190.8571777344" type="qcurve"/>
			<point x="539.9695214345" y="82.7109375"/>
			<point x="362.7768944814" y="-29"/>
			<point x="276.634926708" y="-29" type="qcurve" smooth="yes"/>
			<point x="139.5143822744" y="-29"/>
			<point x="-2.9973144531" y="162"/>
		</contour>
		<contour>
			<point x="146.9924926758" y="325.0009765625" type="qcurve" smooth="yes"/>
			<point x="146.9924926758" y="198.6201171875"/>
			<point x="236.1842710913" y="79.2862548828"/>
			<point x="347.9202940405" y="79.2862548828" type="qcurve" smooth="yes"/>
			<point x="414.253301853" y="79.2862548828"/>
			<point x="596.7235166968" y="242"/>
			<point x="631.7571190908" y="408" type="qcurve" smooth="yes"/>
			<point x="726.7453062476" y="815.5024414062" type="line"/>
			<point x="713.6145629883" y="841.5024414062"/>
			<point x="634.689214939" y="913.708984375"/>
			<point x="574.0227110327" y="913.708984375" type="qcurve" smooth="yes"/>
			<point x="381.066961521" y="913.708984375"/>
			<point x="146.9924926758" y="539"/>
		</contour>
	</outline>
	<anchor name="bottom" x="345" y="0"/>
	<anchor name="ogonek" x="732" y="0"/>
	<anchor name="top" x="608" y="1000"/>
</glyph>
<glyph name="c" format="2">
	<unicode hex="0063"/>
	<advance width="832"/>
	<outline>
		<contour>
			<point x="20.4018554688" y="499" type="qcurve" smooth="yes"/>
			<point x="65.4018554688" y="741.5"/>
			<point x="366.134765625" y="1046"/>
			<point x="500.7268066406" y="1046" type="qcurve" smooth="yes"/>
			<point x="639.8980102539" y="1046"/>
			<point x="784.9967651367" y="916.3647460938"/>
			<point x="784.9967651367" y="798.6977539062" type="qcurve" smooth="yes"/>
			<point x="784.9967651367" y="715.7451171875"/>
			<point x="705.1503295898" y="636.5541992188"/>
			<point x="634.4508056641" y="636.5541992188" type="qcurve"/>
			<point x="576.0916748047" y="687.5541992188" type="line"/>
			<point x="581.5916748047" y="866.8715820312" type="line" smooth="yes"/>
			<point x="582.5916748047" y="896.8715820312"/>
			<point x="583.1348876953" y="943.8715820312"/>
			<point x="518.3802490234" y="943.8715820312" type="qcurve" smooth="yes"/>
			<point x="400.3162841797" y="943.8715820312"/>
			<point x="215.4801025391" y="677.7294921875"/>
			<point x="177.0953369141" y="486.25" type="qcurve" smooth="yes"/>
			<point x="137.9605712891" y="289.7387695312"/>
			<point x="243.9014282227" y="83.2080078125"/>
			<point x="336.8107910156" y="83.2080078125" type="qcurve" smooth="yes"/>
			<point x="424.8316040039" y="83.2080078125"/>
			<point x="616.2740478516" y="229.2709960938"/>
			<point x="662.8196411133" y="328.3500976562" type="qcurve"/>
			<point x="725.8267211914" y="272" type="line"/>
			<point x="728.8267211914" y="243" type="line"/>
			<point x="656.28125" y="116.4760742188"/>
			<point x="384.6701049805" y="-18"/>
			<point x="256.6119995117" y="-18" type="qcurve" smooth="yes"/>
			<point x="140.6502075195" y="-18"/>
			<point x="-22.8481445312" y="265.75"/>
		</contour>
	</outline>
	<anchor name="bottom" x="343" y="0"/>
	<anchor name="top" x="600" y="1000"/>
</glyph>
<glyph name="d" format="2">
	<unicode hex="0064"/>
	<advance width="1091"/>
	<outline>
		<contour>
			<point x="-13.9919029751" y="318.75" type="qcurve" smooth="yes"/>
			<point x="-10.9965684829" y="566"/>
			<point x="399.6938612046" y="984.6240844727"/>
			<point x="660.7603284898" y="997.75" type="qcurve" smooth="yes"/>
			<point x="752.3112928453" y="997.75" type="line"/>
			<point x="848.6991712632" y="1401.2592163086" type="line"/>
			<point x="718.1724988999" y="1414.6684570312" type="line"/>
			<point x="724.4456922593" y="1490.9423828125" type="line"/>
			<point x="973.4202405992" y="1565.9423828125" type="line"/>
			<point x="1024.4208509507" y="1513.2111206055" type="line"/>
			<point x="769.6586439195" y="469" type="line"/>
			<point x="682.2497694078" y="98.0469360352" type="line"/>
			<point x="873.5941907945" y="125.0469360352" type="line"/>
			<point x="873.5941907945" y="33" type="line"/>
			<point x="638.3372938218" y="-36" type="line"/>
			<point x="541.1447279038" y="74.5646972656" type="line"/>
			<point x="543.0933363023" y="160" type="line"/>
			<point x="551.3978406968" y="88"/>
			<point x="293.8729993882" y="-20"/>
			<point x="225.3477308335" y="-20" type="qcurve" smooth="yes"/>
			<point x="102.6795789781" y="-20"/>
			<point x="-14.9823814908" y="145.25"/>
		</contour>
		<contour>
			<point x="139.3554480991" y="318.1630859375" type="qcurve" smooth="yes"/>
			<point x="140.3888685288" y="174.9174804688"/>
			<point x="200.649854857" y="73.9697265625"/>
			<point x="294.9538099351" y="73.9697265625" type="qcurve" smooth="yes"/>
			<point x="375.499464232" y="73.9697265625"/>
			<point x="578.2824842515" y="253.4770507812"/>
			<point x="616.4549085679" y="419.73046875" type="qcurve" smooth="yes"/>
			<point x="720.7879163804" y="850.462890625" type="line"/>
			<point x="704.7879163804" y="876.462890625"/>
			<point x="702.6004163804" y="903.462890625"/>
			<point x="721.5149671617" y="903.462890625" type="qcurve" smooth="yes"/>
			<point x="420.6233655992" y="903.462890625"/>
			<point x="138.3364051303" y="508.5234375"/>
		</contour>
	</outline>
	<anchor name="bottom" x="604" y="0"/>
	<anchor name="center" x="876" y="1202"/>
	<anchor name="top" x="704" y="1534"/>
	<anchor name="topright" x="1076" y="1000"/>
	<anchor name="liga" x="1067" y="0"/>
</glyph>
<glyph name="f" format="2">
	<unicode hex="0066"/>
	<advance width="326"/>
	<outline>
		<contour>
			<point x="-364.5051879883" y="-418.6457519531" type="line" smooth="yes"/>
			<point x="-346.141418457" y="-352.494140625" type="line"/>
			<point x="-265.6214599609" y="-352.0848999023" type="line" smooth="yes"/>
			<point x="-218.5194091797" y="-350.7548828125"/>
			<point x="-170.0755004883" y="-305.4474487305"/>
			<point x="-119.6103515625" y="-50.4122924805" type="qcurve" smooth="yes"/>
			<point x="74.7113647461" y="870" type="line"/>
			<point x="81.2265014648" y="900" type="line"/>
			<point x="141.3406982422" y="1206.2930908203" type="line" smooth="yes"/>
			<point x="174.3322753906" y="1379.5936889648"/>
			<point x="261.4989013672" y="1533.2930908203"/>
			<point x="339.1473999023" y="1533.2930908203" type="qcurve" smooth="yes"/>
			<point x="405.0427246094" y="1533.2930908203"/>
			<point x="512.1013793945" y="1440.5308837891"/>
			<point x="512.1013793945" y="1389.2130126953" type="qcurve" smooth="yes"/>
			<point x="512.1013793945" y="1360.8951416016"/>
			<point x="482.5118408203" y="1312.5455322266"/>
			<point x="450.8609619141" y="1312.5455322266" type="qcurve" smooth="yes"/>
			<point x="421.8609619141" y="1312.5455322266"/>
			<point x="380.8609619141" y="1338.5455322266"/>
			<point x="361.8609619141" y="1356.5455322266" type="qcurve" smooth="yes"/>
			<point x="338.8609619141" y="1378.5455322266"/>
			<point x="309.1673583984" y="1433.5933837891"/>
			<point x="305.6322021484" y="1433.5933837891" type="qcurve" smooth="yes"/>
			<point x="284.9970703125" y="1433.5933837891"/>
			<point x="312.4652709961" y="1321.7912597656"/>
			<point x="290.7564086914" y="1211.9117431641" type="qcurve" smooth="yes"/>
			<point x="232.9199829102" y="894" type="line"/>
			<point x="232.009765625" y="878" type="line"/>
			<point x="64.9957885742" y="86.3542480469" type="line" smooth="yes"/>
			<point x="0.1239624023" y="-218.8788452148"/>
			<point x="-62.7886352539" y="-469.6457519531"/>
			<point x="-230.3881835938" y="-469.6457519531" type="qcurve"/>
		</contour>
		<contour>
			<point x="-51.1627807617" y="861.5063476562" type="line"/>
			<point x="-56.8453979492" y="927" type="line"/>
			<point x="111.018737793" y="950" type="line"/>
			<point x="415.5270385742" y="946" type="line"/>
			<point x="396.876159668" y="867.5063476562" type="line"/>
			<point x="164.1353149414" y="843.5063476562" type="line"/>
			<point x="138.826965332" y="850.8524780273" type="line"/>
		</contour>
	</outline>
	<anchor name="bottom" x="217" y="0"/>
	<anchor name="top" x="554" y="1536"/>
</glyph>
<glyph name="h" format="2">
	<unicode hex="0068"/>
	<advance width="1170"/>
	<outline>
		<contour>
			<point x="100.1420288086" y="-39.7950439453" type="line"/>
			<point x="-25.0375366211" y="67.6792602539" type="line"/>
			<point x="125.5779418945" y="570.7046508789" type="line"/>
			<point x="329.7094726562" y="1399.1767578125" type="line"/>
			<point x="191.6571044922" y="1408.7224121094" type="line"/>
			<point x="202.9302978516" y="1487.9963378906" type="line"/>
			<point x="457.4305419922" y="1565.8297729492" type="line"/>
			<point x="511.3029785156" y="1509.6625976562" type="line"/>
			<point x="295.6689453125" y="657.217956543" type="line"/>
			<point x="161.9766845703" y="145.217956543" type="line"/>
			<point x="288.7587280273" y="50" type="line"/>
		</contour>
		<contour>
			<point x="729.2674560547" y="-33.4359130859" type="line"/>
			<point x="607.2030639648" y="88.6544799805" type="line"/>
			<point x="794.7709350586" y="711.998046875" type="line" smooth="yes"/>
			<point x="819.8184204102" y="797.3306884766"/>
			<point x="760.7111206055" y="901.998046875"/>
			<point x="703.670715332" y="901.998046875" type="qcurve" smooth="yes"/>
			<point x="606.2124023438" y="901.998046875"/>
			<point x="361.490234375" y="717.6600341797"/>
			<point x="233.1594238281" y="506.998046875" type="qcurve"/>
			<point x="230.0401611328" y="610" type="line"/>
			<point x="438.9653930664" y="842.9207763672"/>
			<point x="715.0797729492" y="1020"/>
			<point x="832.5313720703" y="1020" type="qcurve" smooth="yes"/>
			<point x="922.5354614258" y="1020"/>
			<point x="986.5933837891" y="810.8883666992"/>
			<point x="929.2169799805" y="619" type="qcurve" smooth="yes"/>
			<point x="771.227722168" y="97.0014648438" type="line"/>
			<point x="942.3447875977" y="126.0014648438" type="line"/>
			<point x="940.3447875977" y="37" type="line"/>
		</contour>
	</outline>
	<anchor name="bottom" x="420" y="0"/>
	<anchor name="center" x="347" y="1202"/>
	<anchor name="top" x="424" y="1534"/>
</glyph>
<glyph name="k" format="2">
	<unicode hex="006B"/>
	<advance width="917"/>
	<outline>
		<contour>
			<point x="626.0732421875" y="532.7677001953" type="line"/>
			<point x="103.7046508789" y="201.8421020508" type="line"/>
			<point x="122.311340332" y="302.8289794922" type="line"/>
			<point x="709.4030151367" y="713.5072021484" type="line"/>
			<point x="702.362121582" y="792.8706054688"/>
			<point x="656.6176757812" y="904.6650390625"/>
			<point x="580.9016113281" y="904.6650390625" type="qcurve" smooth="yes"/>
			<point x="502.2536621094" y="904.6650390625"/>
			<point x="290.8104248047" y="666.537902832"/>
			<point x="264.8880004883" y="551.6650390625" type="qcurve"/>
			<point x="260.099609375" y="567.9603881836" type="line"/>
			<point x="154.8485107422" y="150.3207397461" type="line"/>
			<point x="277.4509887695" y="56.6668701172" type="line"/>
			<point x="99.4881591797" y="-38" type="line"/>
			<point x="-25.5118408203" y="71" type="line"/>
			<point x="122.4881591797" y="586" type="line"/>
			<point x="327.1837768555" y="1400.1682739258" type="line"/>
			<point x="188.6571044922" y="1406.6684570312" type="line"/>
			<point x="201.9302978516" y="1487.9423828125" type="line"/>
			<point x="451.6868896484" y="1566.7758178711" type="line"/>
			<point x="508.5593261719" y="1509.3906860352" type="line"/>
			<point x="317.2263183594" y="736.4126586914" type="line"/>
			<point x="372.7443847656" y="830.7993164062"/>
			<point x="597.1325683594" y="1021"/>
			<point x="683.8171386719" y="1021" type="qcurve" smooth="yes"/>
			<point x="768.7471313477" y="1021"/>
			<point x="860.7501220703" y="891.4753417969"/>
			<point x="867.6874389648" y="813.7085571289" type="qcurve" smooth="yes"/>
			<point x="873.535949707" y="752.9131469727" type="line"/>
			<point x="839.9083862305" y="701.6909790039" type="line"/>
			<point x="665.1323242188" y="556.4676513672" type="line"/>
		</contour>
		<contour>
			<point x="756.7077636719" y="651.2269287109" type="line"/>
			<point x="798.4586791992" y="132.7197265625" type="line"/>
			<point x="898.7084350586" y="135.7197265625" type="line"/>
			<point x="906.7084350586" y="55.7182617188" type="line"/>
			<point x="732.7780151367" y="-13.2546386719" type="line" smooth="yes"/>
			<point x="710.5330810547" y="-22.2953491211"/>
			<point x="708.8258056641" y="-4.1854248047"/>
			<point x="690.7750854492" y="97.75" type="qcurve" smooth="yes"/>
			<point x="632.020690918" y="584.197265625" type="line"/>
		</contour>
	</outline>
	<anchor name="bottom" x="448" y="0"/>
	<anchor name="top" x="578" y="1534"/>
</glyph>
<glyph name="n" format="2">
	<unicode hex="006E"/>
	<advance width="1075"/>
	<outline>
		<contour>
			<point x="110.2075195312" y="-35" type="line"/>
			<point x="-7.7924804688" y="58.5844726562" type="line"/>
			<point x="161.9997558594" y="635" type="line"/>
			<point x="197.1358032227" y="874.5892944336" type="line"/>
			<point x="51.9732666016" y="855.5892944336" type="line"/>
			<point x="69.8142089844" y="957" type="line"/>
			<point x="268.6345825195" y="998.7922363281" type="line"/>
			<point x="340.2246704102" y="998.7922363281" type="line"/>
			<point x="321.7509765625" y="649" type="line"/>
			<point x="308.0009765625" y="591" type="line"/>
			<point x="175.2087402344" y="111.7728271484" type="line"/>
			<point x="268.3776855469" y="46.3961181641" type="line"/>
		</contour>
		<contour>
			<point x="706.9879150391" y="-22.8714599609" type="line"/>
			<point x="629.8189697266" y="71" type="line"/>
			<point x="812.2657470703" y="713.998840332" type="line" smooth="yes"/>
			<point x="836.6911010742" y="803.0069580078"/>
			<point x="771.3245849609" y="897.6781005859"/>
			<point x="680.9672241211" y="897.6781005859" type="qcurve" smooth="yes"/>
			<point x="563.082824707" y="897.6781005859"/>
			<point x="302.7966308594" y="642.596862793"/>
			<point x="231.7106933594" y="451.4005126953" type="qcurve"/>
			<point x="227.8591918945" y="565.5940551758" type="line"/>
			<point x="339.51953125" y="777.0922241211"/>
			<point x="628.7468261719" y="1025.9998168945"/>
			<point x="755.7220458984" y="1025.9998168945" type="qcurve" smooth="yes"/>
			<point x="885.4127807617" y="1025.9998168945"/>
			<point x="1010.1172485352" y="854.666809082"/>
			<point x="967.8602294922" y="732.7306518555" type="qcurve" smooth="yes"/>
			<point x="787.641784668" y="97.0014648438" type="line"/>
			<point x="958.8043212891" y="126.0014648438" type="line"/>
			<point x="956.8043212891" y="37" type="line"/>
		</contour>
	</outline>
	<anchor name="bottom" x="522" y="0"/>
	<anchor name="top" x="602" y="1000"/>
	<anchor name="liga" x="1173" y="0"/>
</glyph>
<glyph name="r" format="2">
	<unicode hex="0072"/>
	<advance width="772"/>
	<outline>
		<contour>
			<point x="91.996887207" y="-32" type="line"/>
			<point x="4.2792358398" y="60.2947387695" type="line"/>
			<point x="175.4971923828" y="625.6408691406" type="line"/>
			<point x="188.5673217773" y="861.9821777344" type="line"/>
			<point x="37.1551513672" y="866.2266235352" type="line"/>
			<point x="58.24609375" y="973.4207763672" type="line"/>
			<point x="296.4826049805" y="995.2799072266" type="line"/>
			<point x="360.0850830078" y="994.1901245117" type="line"/>
			<point x="359.4956054688" y="960.3962402344" type="line"/>
			<point x="313.0078735352" y="587.2445068359" type="line"/>
			<point x="202.5319824219" y="120.1440429688" type="line"/>
			<point x="338.5101318359" y="85.2355957031" type="line"/>
			<point x="327.5999145508" y="12.4136962891" type="line"/>
		</contour>
		<contour>
			<point x="739.4910888672" y="616.1202392578" type="line"/>
			<point x="713.0111694336" y="889.5655517578" type="line"/>
			<point x="615.810007086" y="889.5517359356"/>
			<point x="388.5676840731" y="712.2547013045"/>
			<point x="203.5062866211" y="432.2481079102" type="qcurve"/>
			<point x="250.0450439453" y="561.1763305664" type="line"/>
			<point x="385.1716320258" y="795.4199214151"/>
			<point x="610.6775955382" y="1013.8256835938"/>
			<point x="734.6545410156" y="1013.8256835938" type="qcurve" smooth="yes"/>
			<point x="800.3015597873" y="1013.8256835938"/>
			<point x="885.7540283203" y="948.505501195"/>
			<point x="885.7540283203" y="840.7553100586" type="qcurve" smooth="yes"/>
			<point x="885.7540283203" y="777.1094269907"/>
			<point x="799.254860782" y="617.4073336252"/>
			<point x="750.6892700195" y="614.8508911133" type="qcurve" smooth="yes"/>
		</contour>
	</outline>
	<anchor name="bottom" x="282" y="0"/>
	<anchor name="top" x="486" y="1000"/>
</glyph>
<glyph name="s" format="2">
	<unicode hex="0073"/>
	<advance width="754"/>
	<outline>
		<contour>
			<point x="-45.0233764648" y="184" type="qcurve" smooth="yes"/>
			<point x="-45.0233764648" y="249"/>
			<point x="59.5029296875" y="319"/>
			<point x="121.7084960938" y="319" type="qcurve" smooth="yes"/>
			<point x="153.0676269531" y="319" type="line"/>
			<point x="153.0676269531" y="195.19140625" type="line" smooth="yes"/>
			<point x="153.0676269531" y="132.2231445312"/>
			<point x="209.0827636719" y="59.2070922852"/>
			<point x="329.8256225586" y="59.2070922852" type="qcurve" smooth="yes"/>
			<point x="437.8268432617" y="59.2070922852"/>
			<point x="605.5467529297" y="199.4118652344"/>
			<point x="605.5467529297" y="272.4722900391" type="qcurve" smooth="yes"/>
			<point x="605.5467529297" y="339.7485351562"/>
			<point x="547.0831298828" y="425.6836547852"/>
			<point x="354.3172607422" y="486.9135131836" type="qcurve" smooth="yes"/>
			<point x="195.3964233398" y="543.6878051758"/>
			<point x="75.7944946289" y="651.9229125977"/>
			<point x="83.0124511719" y="769.1408691406" type="qcurve" smooth="yes"/>
			<point x="91.2304077148" y="894.0510864258"/>
			<point x="303.4238891602" y="1042.1427001953"/>
			<point x="449.6317138672" y="1042.1427001953" type="qcurve" smooth="yes"/>
			<point x="621.2336425781" y="1042.1427001953"/>
			<point x="796.1924438477" y="936"/>
			<point x="796.1924438477" y="854" type="qcurve" smooth="yes"/>
			<point x="796.1924438477" y="781.75"/>
			<point x="721.038269043" y="709"/>
			<point x="671.5763549805" y="709" type="qcurve" smooth="yes"/>
			<point x="625.5633544922" y="709" type="line"/>
			<point x="619.2426147461" y="834.1640014648" type="line" smooth="yes"/>
			<point x="619.2426147461" y="879.1999511719"/>
			<point x="597.2965087891" y="930.5865478516"/>
			<point x="452.212097168" y="930.5865478516" type="qcurve" smooth="yes"/>
			<point x="377.8147583008" y="930.5865478516"/>
			<point x="235.9362792969" y="859.76953125"/>
			<point x="231.9362792969" y="788.8454589844" type="qcurve" smooth="yes"/>
			<point x="227.9362792969" y="715.0643920898"/>
			<point x="341.7931518555" y="644.1115722656"/>
			<point x="467.0714111328" y="613.0144042969" type="qcurve" smooth="yes"/>
			<point x="641.9338989258" y="562.2837524414"/>
			<point x="749.7269287109" y="415.8742675781"/>
			<point x="749.7269287109" y="304.25" type="qcurve"/>
			<point x="747.4005126953" y="164.1218261719"/>
			<point x="516.0912475586" y="-32.2855834961"/>
			<point x="310.9017333984" y="-32.2855834961" type="qcurve" smooth="yes"/>
			<point x="149.6643066406" y="-32.2855834961"/>
			<point x="-45.0233764648" y="84"/>
		</contour>
	</outline>
	<anchor name="bottom" x="282" y="0"/>
	<anchor name="top" x="446" y="1000"/>
</glyph>
<glyph name="u" format="2">
	<unicode hex="0075"/>
	<advance width="1194"/>
	<outline>
		<contour>
			<point x="744.4795532227" y="-33" type="line"/>
			<point x="642.6331176758" y="73.3083496094" type="line"/>
			<point x="677.7458496094" y="279" type="line"/>
			<point x="845.6071166992" y="882.7113037109" type="line"/>
			<point x="790.1712036133" y="992.2369995117" type="line"/>
			<point x="978.7365112305" y="1036.25" type="line"/>
			<point x="1025.5699462891" y="932.25" type="line"/>
			<point x="842.2213745117" y="333" type="line"/>
			<point x="799.0246582031" y="97.9559936523" type="line"/>
			<point x="949.4145507812" y="125.9559936523" type="line"/>
			<point x="949.5054931641" y="38" type="line"/>
		</contour>
		<contour>
			<point x="52.5995483398" y="276" type="qcurve" smooth="yes"/>
			<point x="196.7869873047" y="867.884765625" type="line"/>
			<point x="58.6244506836" y="854.884765625" type="line"/>
			<point x="74.7153930664" y="954.25" type="line"/>
			<point x="244.676940918" y="1008.25" type="line"/>
			<point x="344.1772460938" y="1008.25" type="line"/>
			<point x="361.3314208984" y="920.0314331055" type="line"/>
			<point x="202.7713623047" y="257.541015625" type="line" smooth="yes"/>
			<point x="181.7396240234" y="168.541015625"/>
			<point x="249.7789916992" y="87.1596679688"/>
			<point x="317.9197387695" y="87.1596679688" type="qcurve" smooth="yes"/>
			<point x="424.8220825195" y="87.1596679688"/>
			<point x="778.6901855469" y="332.4185791016"/>
			<point x="753.9722900391" y="457.4450683594" type="qcurve"/>
			<point x="792.3200683594" y="342.1180419922" type="line"/>
			<point x="725.2452392578" y="214.5440673828"/>
			<point x="409.4490966797" y="-19"/>
			<point x="243.6907958984" y="-19" type="qcurve" smooth="yes"/>
			<point x="142.0018920898" y="-19"/>
			<point x="14.8069458008" y="120.2376708984"/>
		</contour>
	</outline>
	<anchor name="bottom" x="404" y="0"/>
	<anchor name="ogonek" x="871" y="20"/>
	<anchor name="top" x="572" y="1000"/>
	<anchor name="topright" x="915" y="1000"/>
	<anchor name="cy_descender" x="1018" y="134"/>
</glyph>
<glyph name="v" format="2">
	<unicode hex="0076"/>
	<advance width="842"/>
	<outline>
		<contour>
			<point x="268.4026489258" y="-25.2856445312" type="line"/>
			<point x="196.8452148438" y="470.1786499023" type="line"/>
			<point x="139.9393310547" y="868.2982788086" type="line"/>
			<point x="65.9887084961" y="865.4801635742" type="line"/>
			<point x="66.0796508789" y="958.8908691406" type="line"/>
			<point x="180.4899902344" y="1005.25" type="line"/>
			<point x="280.0673828125" y="1005.25" type="line"/>
			<point x="347.0450439453" y="520.5444335938" type="line"/>
			<point x="387.8182983398" y="252.3087768555" type="line"/>
			<point x="397.8157958984" y="150.6140136719" type="line"/>
			<point x="413.4068603516" y="150.6140136719" type="line"/>
			<point x="510.6715698242" y="288.4934692383" type="line"/>
			<point x="626.8480834961" y="479.8893432617"/>
			<point x="686.6802368164" y="626.1582641602"/>
			<point x="696.6802368164" y="685.3649291992" type="qcurve" smooth="yes"/>
			<point x="700.6802368164" y="751.7666015625"/>
			<point x="572.8524780273" y="880.8865356445"/>
			<point x="574.8524780273" y="929.4252319336" type="qcurve" smooth="yes"/>
			<point x="576.8524780273" y="959.9448242188"/>
			<point x="639.3728027344" y="1049.4107666016"/>
			<point x="699.102722168" y="1049.4107666016" type="qcurve" smooth="yes"/>
			<point x="762.3616943359" y="1049.4107666016"/>
			<point x="830.4730224609" y="942.9323730469"/>
			<point x="824.4730224609" y="854.2097167969" type="qcurve" smooth="yes"/>
			<point x="815.4730224609" y="761.416015625"/>
			<point x="607.9046020508" y="342.6190185547"/>
			<point x="356.1647949219" y="-42.2856445312" type="qcurve"/>
		</contour>
	</outline>
	<anchor name="bottom" x="513" y="0"/>
	<anchor name="top" x="513" y="1000"/>
</glyph>
<glyph name="x" format="2">
	<unicode hex="0078"/>
	<advance width="1002"/>
	<outline>
		<contour>
			<point x="197.1138305664" y="-21.4284667969" type="qcurve"/>
			<point x="72.414855957" y="40.5715332031" type="line"/>
			<point x="75.0059814453" y="117.8912963867" type="line"/>
			<point x="245.8424682617" y="127.8912963867" type="line" smooth="yes"/>
			<point x="292.2739868164" y="128.646484375"/>
			<point x="348.0208740234" y="218.1874389648"/>
			<point x="415.024597168" y="284.4822998047" type="qcurve" smooth="yes"/>
			<point x="518.1891479492" y="377.169921875"/>
			<point x="456.9563598633" y="372.1475219727"/>
			<point x="526.3753051758" y="459.1449584961" type="qcurve"/>
			<point x="343.7902832031" y="879.2711791992" type="line"/>
			<point x="204.1268310547" y="870.0892944336" type="line"/>
			<point x="198.2177734375" y="963.5" type="line"/>
			<point x="338.4746704102" y="1020.5" type="line"/>
			<point x="467.6418457031" y="1001.5" type="line"/>
			<point x="588.9545288086" y="712.5065917969" type="line"/>
			<point x="606.4395751953" y="636.1854858398" type="line"/>
			<point x="612.4395751953" y="636.1854858398" type="line"/>
			<point x="655.7027587891" y="723.8767700195" type="line" smooth="yes"/>
			<point x="708.1154785156" y="792.1486206055"/>
			<point x="661.1380004883" y="785.2509765625"/>
			<point x="713.7138061523" y="841.7677001953" type="qcurve" smooth="yes"/>
			<point x="795.528503418" y="934.0561523438"/>
			<point x="948.1794433594" y="1029.0714111328"/>
			<point x="995.8238525391" y="1029.0714111328" type="qcurve" smooth="yes"/>
			<point x="1068.9991455078" y="1029.0714111328"/>
			<point x="1138.2401123047" y="946.0714111328"/>
			<point x="1136.2401123047" y="874.0714111328" type="qcurve" smooth="yes"/>
			<point x="1133.2401123047" y="821.0714111328"/>
			<point x="1074.1583251953" y="742.0714111328"/>
			<point x="1001.1583251953" y="740.0714111328" type="qcurve"/>
			<point x="962.1583251953" y="772.0714111328" type="line"/>
			<point x="961.19921875" y="821.9078369141" type="line" smooth="yes"/>
			<point x="961.2401123047" y="846.0714111328"/>
			<point x="947.1583251953" y="884.0714111328"/>
			<point x="915.6583251953" y="884.0714111328" type="qcurve" smooth="yes"/>
			<point x="885.9083251953" y="884.0714111328"/>
			<point x="784.0408325195" y="805.6496582031"/>
			<point x="729.1774291992" y="738.55859375" type="qcurve" smooth="yes"/>
			<point x="648.1458129883" y="649.5084228516"/>
			<point x="687.0199584961" y="628.9822998047"/>
			<point x="645.0477905273" y="559.4822998047" type="qcurve"/>
			<point x="832.5491943359" y="99.8587036133" type="line"/>
			<point x="969.0307617188" y="116.8587036133" type="line"/>
			<point x="966.0307617188" y="41.8572387695" type="line"/>
			<point x="781.9079589844" y="-22.592590332" type="line"/>
			<point x="684.7023925781" y="23.407409668" type="line"/>
			<point x="567.4415893555" y="317.0336914062" type="line"/>
			<point x="554.2706298828" y="381.8868408203" type="line"/>
			<point x="548.2706298828" y="381.8868408203" type="line"/>
			<point x="512.580078125" y="307.83203125" type="line"/>
			<point x="464.7808837891" y="254.3056640625"/>
			<point x="490.0043334961" y="228.9301757812"/>
			<point x="433.301574707" y="165.7138671875" type="qcurve" smooth="yes"/>
			<point x="355.1547241211" y="73.6158447266"/>
			<point x="273.6148071289" y="-20.2062988281"/>
		</contour>
	</outline>
	<anchor name="bottom" x="522" y="0"/>
	<anchor name="top" x="522" y="1000"/>
	<anchor name="cy_descender" x="832" y="134"/>
	<anchor name="center" x="432" y="502"/>
</glyph>
<glyph name="y" format="2">
	<unicode hex="0079"/>
	<advance width="881"/>
	<outline>
		<contour>
			<point x="-280.0291137695" y="-425.0711669922" type="line"/>
			<point x="-265.0291137695" y="-358.0711669922" type="line"/>
			<point x="-111.2260131836" y="-356.0711669922" type="line" smooth="yes"/>
			<point x="-50.9768676758" y="-355.0711669922"/>
			<point x="223.4286499023" y="-153.1412353516"/>
			<point x="281.71484375" y="-48.4089355469" type="qcurve" smooth="yes"/>
			<point x="320.4319458008" y="0" type="line"/>
			<point x="304.5211181641" y="1" type="line"/>
			<point x="248.0657958984" y="248"/>
			<point x="143.8006591797" y="697.8392944336"/>
			<point x="105.866027832" y="879.8392944336" type="qcurve"/>
			<point x="18.9755859375" y="870.8392944336" type="line"/>
			<point x="21.0665283203" y="961.25" type="line"/>
			<point x="140.2466430664" y="1008.25" type="line"/>
			<point x="231.8881225586" y="1008.25" type="line"/>
			<point x="264.8881225586" y="944.25" type="line"/>
			<point x="399.9248046875" y="244.469543457" type="line"/>
			<point x="406.11328125" y="136.8974609375" type="line"/>
			<point x="418.11328125" y="136.8974609375" type="line"/>
			<point x="500.9091796875" y="264.3494262695" type="line" smooth="yes"/>
			<point x="676.6148071289" y="501.0075073242"/>
			<point x="725.2216796875" y="708.9677734375"/>
			<point x="723.380859375" y="768.904296875" type="qcurve" smooth="yes"/>
			<point x="722.2700195312" y="820.8408203125"/>
			<point x="650.8834228516" y="877.8569335938"/>
			<point x="653.8834228516" y="931.8569335938" type="qcurve" smooth="yes"/>
			<point x="655.8834228516" y="972.8569335938"/>
			<point x="731.024597168" y="1052.8569335938"/>
			<point x="800.9862060547" y="1051.8569335938" type="qcurve" smooth="yes"/>
			<point x="859.3453369141" y="1050.8569335938"/>
			<point x="928.8970336914" y="973.8569335938"/>
			<point x="928.8970336914" y="912.8569335938" type="qcurve" smooth="yes"/>
			<point x="928.8970336914" y="853.0352783203"/>
			<point x="674.0017089844" y="366.6856079102"/>
			<point x="375.7459716797" y="-2.8773193359" type="qcurve" smooth="yes"/>
			<point x="341.0617675781" y="-48" type="line" smooth="yes"/>
			<point x="182.1631469727" y="-255.1165161133"/>
			<point x="-102.2053833008" y="-471.0711669922"/>
			<point x="-265.6050415039" y="-471.0711669922" type="qcurve"/>
		</contour>
	</outline>
	<anchor name="bottom" x="782" y="0"/>
	<anchor name="top" x="504" y="1000"/>
</glyph>
<glyph name="z" format="2">
	<unicode hex="007A"/>
	<advance width="510"/>
	<outline>
		<contour>
			<point x="-255.0888671875" y="-18.857421875" type="line"/>
			<point x="-254.0002441406" y="62" type="line"/>
			<point x="-145.9562988281" y="166.75"/>
			<point x="107.8034667969" y="447.75"/>
			<point x="163.1059570312" y="526.8491210938" type="qcurve" smooth="yes"/>
			<point x="216.4603271484" y="593.7182617188"/>
			<point x="429.3275756836" y="799.8258666992"/>
			<point x="465.1655883789" y="862.5758666992" type="qcurve"/>
			<point x="100.1525878906" y="861.7040405273" type="line"/>
			<point x="11.5395507812" y="765.9995117188" type="line"/>
			<point x="-105.3344726562" y="765.9995117188" type="line"/>
			<point x="-35.3876953125" y="978" type="line"/>
			<point x="27.6123046875" y="1008" type="line"/>
			<point x="619.5290527344" y="1008" type="line"/>
			<point x="637.6560058594" y="931" type="line"/>
			<point x="583.2713623047" y="850.25"/>
			<point x="338.2119140625" y="583.0317382812"/>
			<point x="247.9630126953" y="481.5" type="qcurve" smooth="yes"/>
			<point x="170.3776855469" y="392.5"/>
			<point x="17.2016601562" y="246.6290893555"/>
			<point x="-38.2397460938" y="190.6290893555" type="qcurve"/>
			<point x="404.8424682617" y="149.1120605469" type="line"/>
			<point x="522.5593261719" y="252.2192382812" type="line"/>
			<point x="611.177734375" y="226.3039550781" type="line"/>
			<point x="499.1500244141" y="-3" type="line"/>
			<point x="446.1500244141" y="-22" type="line"/>
			<point x="-145.9453125" y="62.6826171875" type="line"/>
		</contour>
	</outline>
	<anchor name="bottom" x="443" y="0"/>
	<anchor name="top" x="463" y="1000"/>
	<anchor name="_liga" x="0" y="0"/>
</glyph>
<glyph name="idotless" format="2">
	<unicode hex="0131"/>
	<advance width="640"/>
	<outline>
		<contour>
			<point x="151.3481445312" y="-35" type="line"/>
			<point x="28.7196655273" y="89.3083496094" type="line"/>
			<point x="154.7964477539" y="513.5" type="line"/>
			<point x="259.796081543" y="883.0892944336" type="line"/>
			<point x="83.7699584961" y="857.0892944336" type="line"/>
			<point x="99.8609008789" y="955.5" type="line"/>
			<point x="332.3865356445" y="1009.5" type="line"/>
			<point x="404.9382324219" y="1009.5" type="line"/>
			<point x="430.8744506836" y="907.0888671875" type="line"/>
			<point x="374.2719726562" y="749.5" type="line"/>
			<point x="293.0540161133" y="466.0510864258" type="line"/>
			<point x="188.2245483398" y="97.0014648438" type="line"/>
			<point x="383.4768676758" y="127.0014648438" type="line"/>
			<point x="383.4768676758" y="40" type="line"/>
		</contour>
	</outline>
	<anchor name="bottom" x="180" y="0"/>
	<anchor name="top" x="320" y="1000"/>
	<anchor name="ogonek" x="180" y="0"/>
	<anchor name="yu_dash" x="239" y="498"/>
	<anchor name="liga" x="618" y="0"/>
</glyph>
<glyph name="jdotless" format="2">
	<unicode hex="0237"/>
	<advance width="557"/>
	<outline>
		<contour>
			<point x="312.9388427734" y="883.5892944336" type="qcurve"/>
			<point x="136.5489501953" y="857.5892944336" type="line"/>
			<point x="152.6398925781" y="956" type="line"/>
			<point x="384.0757446289" y="1010" type="line"/>
			<point x="458.8070068359" y="1010" type="line"/>
			<point x="485.3970947266" y="905.8068237305" type="line"/>
			<point x="426.5252685547" y="743" type="line"/>
			<point x="240.7111816406" y="5" type="line"/>
			<point x="185.3150634766" y="-246.3662109375"/>
			<point x="0.1846923828" y="-475"/>
			<point x="-93.4893798828" y="-475" type="qcurve"/>
			<point x="-225.6987304688" y="-425" type="line"/>
			<point x="-208.8802490234" y="-358.5892944336" type="line"/>
			<point x="-116.0864257812" y="-358.4983520508" type="line" smooth="yes"/>
			<point x="-40.8576660156" y="-358.4983520508"/>
			<point x="45.4608154297" y="-185.6087036133"/>
			<point x="110.87109375" y="89.5012817383" type="qcurve" smooth="yes"/>
			<point x="161.3254394531" y="294"/>
			<point x="283.5754394531" y="756"/>
		</contour>
	</outline>
	<anchor name="bottom" x="88" y="-436"/>
	<anchor name="top" x="320" y="1000"/>
	<anchor name="_liga" x="0" y="0"/>
</glyph>
